<?xml version="1.0" encoding="UTF-8"?>
<svg id="Layer_1" xmlns="http://www.w3.org/2000/svg" version="1.1" viewBox="0 0 307 83.3">
  <!-- Generator: Adobe Illustrator 29.8.2, SVG Export Plug-In . SVG Version: 2.1.1 Build 3)  -->
  <defs>
    <style>
      .st0 {
        fill: #fff;
      }
    </style>
  </defs>
  <g>
    <path class="st0" d="M63.2,3.1v77.1h-16v-34.2h-28.9v34.2H2.2V3.1h16v29.2h28.9V3.1h16Z"/>
    <path class="st0" d="M119.1,63.4h-24.3l-4.5,16.9h-17.2L96.8,3.1h20.8l23.8,77.1h-17.8l-4.5-16.9ZM115.5,50l-4.5-16.7-3.7-14.7h-1l-3.5,14.7-4.4,16.7h17.1Z"/>
    <path class="st0" d="M147.5,48.9v-18.7h16.1v18.7c0,9.7,2.3,18.2,14.5,18.2s14.6-7.3,14.6-18.2v-18.7h16.1v18.7c0,20.3-9.4,32.8-30.7,32.8s-30.6-12.4-30.6-32.8Z"/>
    <path class="st0" d="M224.1,3.1h20.3l14.4,35.5,4.3,11.6h1.1l4.3-11.6,15.2-35.5h20.8v77.1h-15.9V27.6h-1l-4.3,12-17.8,40.7h-4.2l-17.3-41.6-4.2-11.4h-.8v53h-14.8V3.1Z"/>
  </g>
  <path class="st0" d="M162.8,3.1h12.2v17.6h-12.2V3.1ZM181.7,3.1h12.2v17.6h-12.2V3.1Z"/>
</svg>